<svg xmlns="http://www.w3.org/2000/svg" width="719.53" height="455.365"><path d="M602.46 35.65H.67c.85-4.82 2.51-9.38 4.83-13.51C12.91 8.94 27.04 0 43.23 0H559.9c16.18 0 30.32 8.94 37.72 22.14 2.32 4.13 3.99 8.69 4.84 13.51z" fill="#f2f2f2"/><path d="M719.53 453.7c0 .66-.53 1.19-1.19 1.19H471.05c-.66 0-1.19-.53-1.19-1.19 0-.32.12-.6.32-.81h89.72c1.91 0 3.78-.13 5.62-.38h152.82c.66 0 1.19.53 1.19 1.19z" fill="#3f3d56"/><path d="M479.561 211.14h-356c-3.308 0-6-2.691-6-6s2.692-6 6-6h356c3.31 0 6 2.691 6 6s-2.69 6-6 6z" fill="#e6e6e6"/><path d="M602.46 35.65c-.85-4.82-2.52-9.38-4.84-13.51C590.22 8.94 576.08 0 559.9 0H43.23C27.04 0 12.91 8.94 5.5 22.14A42.747 42.747 0 00.67 35.65C.23 38.11 0 40.64 0 43.23v368.43c0 23.84 19.39 43.23 43.23 43.23H559.9c4.94 0 9.7-.84 14.13-2.38 16.92-5.86 29.1-21.96 29.1-40.85V43.23c0-2.58-.23-5.12-.67-7.58zm-1.33 376.01c0 20.86-15.5 38.11-35.61 40.85-1.84.25-3.71.38-5.62.38H104.64C47.95 452.89 2 406.93 2 350.24V43.23c0-2.59.24-5.12.7-7.58.9-4.86 2.65-9.41 5.1-13.51C14.99 10.08 28.17 2 43.23 2H559.9c15.06 0 28.24 8.08 35.43 20.14 2.45 4.1 4.2 8.65 5.1 13.51.46 2.46.7 4.99.7 7.58v368.43z" fill="#3f3d56"/><path fill="#ffb6b6" d="M575.926 216.08l-3.384-12.408 15.228-5.64 1.692 11.28-13.536 6.768z"/><path opacity=".1" d="M575.926 216.08l-3.384-12.408 8.968-3.783-2.786 14.628-2.798 1.563z"/><path d="M531.35 322.417c-2.91-1.73-3.062-6.838-.343-11.409 1.19-2 2.734-3.566 4.337-4.55l1.597-2.609 20.202-36.216s8.843-34.156 12.443-38.286c3.6-4.13 8.806-3.157 8.806-3.157l4.617 4.101-16.479 48.378-20.336 28.638-2.725 3.985c-.1 1.879-.739 3.982-1.93 5.983-2.719 4.57-7.281 6.873-10.19 5.142z" fill="#ffb6b6"/><path d="M575.093 212.535s6.426-.248 10.48 4.743c4.054 4.992-17.185 61.25-17.185 61.25l-17.3-.613 24.005-65.38z" fill="#9e1b1b"/><circle cx="576.772" cy="189.854" r="15.792" fill="#ffb6b6"/><path fill="#ffb6b6" d="M539.831 419.114l-10.716 26.507-6.203-6.204-2.256-11.844 9.023-11.28 10.152 2.82zm100.389-9.588l10.716 12.408-5.076 10.151-11.28-1.692-5.64-15.791 11.28-5.076zM568.876 261.48l-1.41 22.842 34.967-6.204-2.256-14.1-31.3-2.538z"/><path d="M567.184 284.604l35.25-11.562s12.971 25.943-1.129 42.299-60.91 109.413-60.91 109.413l-14.1-6.768 20.304-59.219 22.56-54.706-1.975-19.457z" fill="#2f2e41"/><path fill="#2f2e41" d="M601.305 305.753l13.536 59.218 28.2 45.683-14.664 8.46-39.48-54.143-12.97-41.735 25.378-17.483zM515.58 425.318h-9.768s-11.397-4.512-14.068 0c-2.671 4.511 11.918 17.308 11.918 17.308s20.378 11.455 23.198 10.89c2.82-.563 3.947-7.331 3.947-7.331l3.384-7.896-5.076 1.692s-6.767-3.948-5.075-10.716l-8.46-3.947zm133.1-1.692v-5.64l6.557 5.64s10.927 3.947 2.467 12.407c-8.46 8.46-19.176 17.484-19.176 17.484s-16.92 4.512-18.047-.564c-1.128-5.076 0-7.13 0-7.13l6.204-3.022 5.64-14.664 9.023 1.128 7.332-5.64zm-67.114-230.67l-5.076-.564-9.306-9.305s-8.46 4.511-8.46 1.127c0-15.791 9.588-15.227 17.484-16.355 7.896-1.128 7.05-1.41 9.588 2.82 1.16 1.934 5.358 3.102 5.358 3.102s7.895-10.716 11.843 2.256c3.948 12.971-1.128 53.014 2.82 56.398 3.948 3.384-16.21 6.763-14.027-6.488 2.184-13.251 6.132-33.555 3.876-38.067-2.256-4.511-2.82-3.384-2.82-3.384 2.795-1.141 4.622 18.965-5.919 19.95l-.285-9.798s-1.692-5.076-5.076-1.692z"/><path d="M574.516 212.414l16.92-6.768 22.559 67.678-46.416-1.69-4.18-20.2s-4.08-10.514-.696-16.718c3.384-6.203 11.813-22.302 11.813-22.302z" fill="#9e1b1b"/><path d="M618.543 325.783c-3.372.29-6.474-3.77-6.93-9.07-.198-2.32.143-4.492.872-6.225l-.223-3.051-4.7-41.202s-8.748-33.703-8.23-39.158c.517-5.454 1.334-6.902 1.334-6.902l6.142.64 14.815 48.913.173 35.124.109 4.827c1.014 1.584 1.72 3.666 1.92 5.985.455 5.3-1.91 9.83-5.282 10.12z" fill="#ffb6b6"/><path d="M590.026 211.004s5.076-3.948 11.28-2.256 21.744 59.782 21.744 59.782l-14.413 9.588-18.611-67.114zM296.205 308.64H228.55c-4.13 0-7.489-3.36-7.489-7.488v-6.767c0-4.129 3.36-7.487 7.489-7.487h67.655c4.13 0 7.489 3.358 7.489 7.487v6.767c0 4.129-3.36 7.488-7.489 7.488zm260-221.129H488.55c-4.13 0-7.489-3.36-7.489-7.488v-6.767c0-4.129 3.36-7.487 7.489-7.487h67.655c4.13 0 7.489 3.358 7.489 7.487v6.767c0 4.129-3.36 7.488-7.489 7.488zM396.573 309.14h-67.656c-4.404 0-7.988-3.584-7.988-7.988v-6.767c0-4.404 3.584-7.987 7.988-7.987h67.656c4.405 0 7.988 3.583 7.988 7.987v6.767c0 4.404-3.583 7.988-7.988 7.988zm-67.656-20.742a5.994 5.994 0 00-5.988 5.987v6.767a5.995 5.995 0 005.988 5.988h67.656a5.995 5.995 0 005.988-5.988v-6.767a5.994 5.994 0 00-5.988-5.987h-67.656z" fill="#9e1b1b"/><path d="M479.561 180.14h-356c-3.308 0-6-2.691-6-6s2.692-6 6-6h356c3.31 0 6 2.691 6 6s-2.69 6-6 6zM100.89 82.64h-45c-3.309 0-6-2.691-6-6s2.691-6 6-6h45c3.309 0 6 2.691 6 6s-2.691 6-6 6zm269 0h-45c-3.309 0-6-2.691-6-6s2.691-6 6-6h45c3.309 0 6 2.691 6 6s-2.691 6-6 6zm85 0h-45c-3.309 0-6-2.691-6-6s2.691-6 6-6h45c3.309 0 6 2.691 6 6s-2.691 6-6 6zm-54.329 159.5h-198c-3.308 0-6-2.691-6-6s2.692-6 6-6h198c3.31 0 6 2.691 6 6s-2.69 6-6 6zm8.632 131.256H193.937c-2 0-3.628-1.628-3.628-3.628s1.628-3.628 3.628-3.628h215.256c2 0 3.628 1.627 3.628 3.628s-1.628 3.628-3.628 3.628zm-47.768 18.744h-119.72c-2.001 0-3.628-1.627-3.628-3.628s1.627-3.628 3.628-3.628h119.72c2.001 0 3.628 1.628 3.628 3.628s-1.627 3.628-3.628 3.628z" fill="#e6e6e6"/><path d="M411.193 21.396H195.937c-2 0-3.628-1.628-3.628-3.628s1.628-3.628 3.628-3.628h215.256c2 0 3.628 1.627 3.628 3.628s-1.628 3.628-3.628 3.628z" fill="#fff"/><path d="M440.153 9.962l-1.364 1.465 6.146 5.713h-18.663a1 1 0 000 2h18.666l-6.15 5.715 1.365 1.465 8.796-8.178-8.796-8.18z" fill="#9e1b1b"/></svg>